<?xml version="1.0" standalone="no"?>
<!DOCTYPE svg PUBLIC "-//W3C//DTD SVG 20010904//EN"
 "http://www.w3.org/TR/2001/REC-SVG-20010904/DTD/svg10.dtd">
<svg version="1.0" xmlns="http://www.w3.org/2000/svg"
 width="589.000000pt" height="206.000000pt" viewBox="0 0 589.000000 206.000000"
 preserveAspectRatio="xMidYMid meet">

<g transform="translate(0.000000,206.000000) scale(0.100000,-0.100000)"
fill="#000000" stroke="none">
<path d="M504 1632 c3 -6 -2 -8 -13 -5 -58 15 -220 -119 -235 -194 -1 -10 -7
-27 -12 -38 -5 -11 -9 -270 -9 -580 l0 -560 540 0 c297 1 554 3 570 7 17 3 29
11 27 18 -1 6 2 9 8 5 12 -7 51 12 67 34 9 12 9 20 0 31 -11 13 -10 13 6 1 14
-11 15 -16 5 -29 -7 -9 2 -5 20 8 18 13 30 30 28 37 -3 8 1 10 11 6 13 -5 15
-2 11 15 -5 16 -2 19 11 14 14 -5 14 -4 2 12 -13 16 -13 17 4 14 15 -2 24 9
39 47 20 48 21 68 21 593 0 299 -3 548 -7 555 -4 7 -167 12 -553 15 -365 3
-545 1 -541 -6z m-118 -69 c-3 -20 -22 -28 -31 -14 -4 7 0 8 10 5 9 -4 15 -3
14 2 -2 13 0 24 5 24 2 0 3 -8 2 -17z m-70 -124 c0 -10 -4 -15 -9 -12 -5 3
-13 -1 -18 -8 -6 -9 -9 -10 -9 -2 0 6 5 15 10 18 6 4 8 10 6 14 -3 4 0 8 7 8
7 0 13 -8 13 -18z m558 -41 c-5 -8 -1 -9 12 -3 21 8 60 8 75 -1 5 -3 9 -54 9
-113 0 -65 4 -111 11 -118 8 -8 7 -11 -2 -10 -27 3 -99 -15 -99 -24 0 -5 -4
-8 -9 -6 -5 1 -17 -7 -26 -18 -9 -11 -13 -13 -9 -5 4 8 -5 4 -20 -10 -14 -13
-24 -30 -22 -37 3 -8 -1 -10 -11 -6 -10 4 -14 2 -10 -4 4 -6 2 -13 -4 -15 -16
-5 -25 -128 -9 -128 6 0 9 -4 6 -9 -8 -12 4 -42 14 -36 4 3 7 -3 6 -13 0 -9 5
-16 12 -14 8 1 11 -2 8 -6 -11 -18 59 -63 104 -68 13 -2 30 2 36 7 8 7 15 6
20 -2 4 -8 3 -9 -4 -5 -7 4 -12 3 -12 -3 0 -5 5 -13 10 -16 6 -4 10 -55 10
-121 l0 -114 -37 -1 c-21 -1 -44 -1 -52 0 -8 2 -10 -3 -5 -11 4 -8 3 -10 -2
-5 -5 5 -9 12 -9 15 -2 25 -17 62 -26 62 -6 0 -7 -5 -3 -12 5 -7 3 -8 -6 -3
-10 6 -10 11 3 20 18 13 13 25 -10 25 -8 0 -12 -4 -8 -9 3 -5 0 -13 -7 -17 -7
-4 -10 -4 -6 1 10 10 -10 47 -22 40 -4 -3 -10 0 -12 7 -2 6 -10 8 -16 4 -15
-9 -16 -27 -1 -23 6 1 12 -10 13 -25 2 -34 -2 -35 -13 -6 -6 17 -16 22 -49 23
-32 1 -46 7 -62 28 -22 27 -47 38 -35 14 4 -6 -5 2 -19 18 -14 17 -26 35 -26
40 0 6 4 4 9 -4 11 -17 20 -3 23 37 1 17 5 29 9 26 16 -10 19 17 5 38 -9 12
-16 30 -16 40 0 10 -3 18 -7 19 -32 3 -58 11 -63 19 -4 6 -24 8 -45 5 -61 -7
-91 34 -40 57 35 16 31 32 -6 24 -22 -4 -29 -2 -26 7 2 7 22 12 45 13 23 1 40
-2 37 -5 -2 -4 0 -13 6 -21 6 -11 9 -8 9 13 0 15 -6 27 -12 27 -9 0 -8 4 2 10
12 8 12 10 1 10 -8 0 -3 8 12 20 14 11 37 20 50 20 30 0 44 17 28 33 -6 6 -11
16 -11 22 0 5 4 4 9 -4 7 -11 13 -7 25 17 15 28 15 32 0 40 -9 5 -15 12 -15
15 3 23 0 37 -10 37 -5 0 -7 -5 -3 -12 4 -6 3 -8 -4 -5 -12 8 -9 42 4 42 13 0
69 58 77 79 4 9 1 16 -5 16 -6 0 -9 3 -5 6 3 3 12 2 19 -2 7 -4 19 -9 28 -10
41 -7 54 -12 58 -22 5 -17 28 -15 47 4 12 13 14 19 4 24 -7 5 -1 7 15 7 24 -2
25 -3 9 -14 -18 -14 -14 -17 11 -7 9 3 16 15 16 26 0 11 5 29 11 40 8 15 8 19
0 14 -6 -4 -19 -2 -28 3 -16 9 -15 10 7 8 16 -1 24 3 22 11 -1 8 2 11 8 7 6
-3 7 -11 4 -17z m-44 -23 c0 -2 -6 -5 -13 -8 -8 -3 -14 1 -14 8 0 7 6 11 14 8
7 -3 13 -6 13 -8z m-66 -46 c3 -3 -4 -5 -14 -6 -11 -1 -22 2 -24 6 -5 8 30 8
38 0z m26 -23 c0 -2 -7 -7 -16 -10 -8 -3 -12 -2 -9 4 6 10 25 14 25 6z m-200
-52 c0 -8 -19 -13 -24 -6 -3 5 1 9 9 9 8 0 15 -2 15 -3z m635 -4 c-3 -5 -12
-10 -18 -10 -7 0 -6 4 3 10 19 12 23 12 15 0z m122 -15 c5 -4 2 -5 -4 -1 -16
9 -16 6 1 -35 13 -33 13 -35 -21 -69 -20 -19 -33 -30 -29 -24 3 7 -9 14 -35
18 -28 4 -38 10 -33 19 5 7 2 7 -9 -2 -15 -12 -17 -12 -11 3 6 15 -2 17 -70
14 l-77 -2 -32 -51 c-17 -27 -35 -53 -40 -56 -5 -4 -6 -12 -3 -18 4 -6 3 -10
-3 -9 -6 2 -20 -11 -31 -28 l-20 -32 105 -1 c112 -2 127 1 119 24 -4 8 -11 12
-17 8 -6 -4 -7 -1 -2 6 5 9 11 9 17 3 7 -7 22 -5 45 5 31 13 37 12 52 -1 10
-9 20 -14 22 -12 2 2 5 -13 7 -34 3 -53 -34 -98 -66 -81 -12 6 -22 8 -22 4 0
-4 -8 4 -18 18 -17 26 -20 27 -131 28 l-114 2 28 -38 c16 -21 34 -41 39 -45 6
-4 7 -8 2 -8 -5 0 -3 -7 4 -15 7 -9 20 -13 29 -10 13 5 13 4 4 -6 -13 -13 1
-54 15 -45 5 3 14 0 22 -6 12 -8 11 -9 -3 -4 -12 4 -17 2 -14 -6 2 -9 29 -13
83 -14 88 -2 103 2 78 20 -13 10 -14 15 -4 21 9 5 11 4 6 -3 -4 -7 -1 -12 8
-12 9 0 16 4 16 9 0 4 20 8 45 8 33 0 49 -5 62 -21 17 -19 17 -20 0 -7 -16 13
-16 11 -2 -23 11 -26 12 -36 3 -36 -6 0 -8 -3 -5 -7 13 -12 -43 -40 -71 -35
-25 5 -26 4 -12 -14 14 -18 14 -18 -3 -5 -9 8 -15 16 -13 19 3 2 -1 11 -9 18
-7 8 -15 18 -17 23 -1 5 -55 11 -118 13 l-115 3 0 31 c0 17 -5 37 -12 45 -6 8
-12 19 -12 24 -1 6 -5 10 -10 10 -5 0 -13 3 -17 8 -4 4 -2 7 5 7 8 0 6 8 -5
25 -9 14 -21 22 -27 18 -6 -4 -7 -1 -3 6 5 7 0 21 -10 32 -14 16 -29 20 -63
18 -35 -3 -45 0 -47 14 -2 14 6 17 45 17 36 0 50 5 61 21 8 12 25 35 38 50 13
16 21 33 17 39 -4 6 -1 9 7 8 7 -2 12 3 11 10 -2 6 1 12 6 12 11 0 44 50 44
67 0 7 4 10 8 8 4 -3 9 2 12 10 5 10 28 15 89 17 65 2 82 6 80 17 -3 12 0 12
12 1 15 -11 20 -7 17 13 -1 5 3 6 8 3 5 -4 12 -3 14 1 7 11 85 9 94 -2z m-265
-113 c-4 -11 -1 -13 8 -7 9 6 11 4 5 -5 -6 -10 -11 -9 -22 5 -12 17 -18 13
-14 -8 1 -5 -3 -6 -9 -2 -8 5 -8 11 -1 19 15 18 40 16 33 -2z m155 -8 c-3 -3
-12 -4 -19 -1 -8 3 -5 6 6 6 11 1 17 -2 13 -5z m-717 -59 c0 -8 -10 -20 -22
-26 -22 -12 -22 -11 -5 8 9 11 14 23 10 26 -3 4 -1 7 5 7 7 0 12 -7 12 -15z
m317 -11 c-3 -3 -12 -4 -19 -1 -8 3 -5 6 6 6 11 1 17 -2 13 -5z m200 -10 c0
-10 -10 -11 -35 -5 -2 1 -1 5 2 9 8 13 33 10 33 -4z m-136 -7 c-6 -8 -7 -18
-3 -22 4 -5 1 -5 -6 -1 -10 6 -10 11 -1 22 6 8 14 14 16 14 3 0 0 -6 -6 -13z
m-581 -112 c0 -8 -7 -15 -15 -15 -17 0 -19 -27 -6 -63 14 -36 -12 -43 -26 -8
-23 56 -23 76 0 88 32 16 47 15 47 -2z m835 -13 c-3 -3 -11 0 -18 7 -9 10 -8
11 6 5 10 -3 15 -9 12 -12z m-262 -17 c-7 -21 -12 -19 -10 4 0 11 5 18 9 15 4
-3 5 -11 1 -19z m97 -5 c6 -11 8 -20 6 -20 -3 0 -10 9 -16 20 -6 11 -8 20 -6
20 3 0 10 -9 16 -20z m30 10 c0 -5 -2 -10 -4 -10 -3 0 -8 5 -11 10 -3 6 -1 10
4 10 6 0 11 -4 11 -10z m145 -9 c3 -5 2 -12 -3 -15 -5 -3 -9 1 -9 9 0 17 3 19
12 6z m-140 -20 c3 -5 2 -12 -3 -15 -5 -3 -9 1 -9 9 0 17 3 19 12 6z m-637
-12 c-2 -6 -8 -10 -13 -10 -5 0 -11 4 -13 10 -2 6 4 11 13 11 9 0 15 -5 13
-11z m457 -9 c-3 -5 -12 -10 -18 -10 -7 0 -6 4 3 10 19 12 23 12 15 0z m45 0
c0 -5 -2 -10 -4 -10 -3 0 -8 5 -11 10 -3 6 -1 10 4 10 6 0 11 -4 11 -10z m-20
-40 c-6 -11 -13 -20 -16 -20 -2 0 0 9 6 20 6 11 13 20 16 20 2 0 0 -9 -6 -20z
m69 -4 c9 -11 9 -16 -1 -22 -7 -4 -10 -4 -6 1 4 4 3 14 -3 22 -6 7 -9 13 -6
13 2 0 10 -6 16 -14z m166 -34 c-3 -3 -11 0 -18 7 -9 10 -8 11 6 5 10 -3 15
-9 12 -12z m-529 -33 c1 -16 -1 -27 -4 -24 -3 3 -6 19 -7 35 -1 16 1 27 4 24
3 -3 6 -19 7 -35z m784 -80 c0 -4 -6 -9 -13 -12 -8 -3 -14 0 -14 7 0 7 6 13
14 13 7 0 13 -4 13 -8z m-658 -86 c-6 -3 -9 -10 -5 -16 4 -7 -1 -6 -10 2 -21
17 -21 17 6 18 12 0 16 -1 9 -4z m128 -73 c0 -5 -5 -10 -11 -10 -5 0 -7 5 -4
10 3 6 8 10 11 10 2 0 4 -4 4 -10z m20 -20 c0 -5 -5 -10 -11 -10 -5 0 -7 5 -4
10 3 6 8 10 11 10 2 0 4 -4 4 -10z m707 -24 c0 -8 -6 -12 -15 -9 -11 5 -11 7
0 14 7 5 13 9 14 9 0 0 1 -6 1 -14z"/>
<path d="M890 1333 c3 -46 1 -53 -17 -53 -14 0 -98 -35 -112 -47 -2 -1 4 -13
15 -25 15 -18 16 -20 2 -9 -12 9 -18 10 -18 2 0 -6 -5 -11 -11 -11 -5 0 -7 5
-4 10 10 16 -6 12 -29 -7 -12 -10 -16 -11 -9 -4 6 7 9 20 6 28 -5 12 -1 14 17
8 22 -7 22 -6 7 16 -17 23 -47 35 -47 18 0 -5 -6 -8 -12 -6 -7 1 -12 -4 -11
-10 2 -7 -3 -12 -10 -10 -6 1 -11 -4 -9 -11 1 -8 -2 -11 -7 -8 -5 4 -12 2 -16
-4 -3 -5 1 -10 9 -10 8 0 18 -4 21 -10 4 -6 -1 -7 -12 -3 -16 6 -16 5 -4 -10
7 -9 17 -15 21 -12 13 8 -2 -49 -17 -67 -8 -9 -12 -22 -8 -27 3 -6 2 -11 -3
-11 -5 0 -12 -9 -15 -20 -3 -13 -1 -18 5 -13 7 3 8 1 4 -5 -4 -7 -22 -12 -40
-12 -19 0 -40 -7 -47 -17 -13 -15 -12 -15 7 -5 19 10 21 8 20 -26 -1 -27 -5
-37 -17 -36 -9 1 -16 -5 -16 -12 0 -7 3 -11 7 -9 4 2 22 7 41 10 34 5 34 5 9
-10 -21 -12 -22 -14 -6 -15 11 0 28 7 38 17 10 9 18 11 18 6 0 -6 -6 -13 -14
-16 -17 -7 -6 -69 17 -95 9 -9 16 -21 17 -27 1 -5 6 -9 12 -7 5 1 7 -2 3 -8
-9 -14 8 -13 25 3 12 10 12 9 0 -6 -7 -10 -18 -16 -24 -14 -17 7 -37 -18 -24
-31 8 -8 5 -9 -10 -5 -17 4 -20 1 -15 -15 7 -30 59 -76 77 -69 14 6 15 15 7
56 -1 2 -10 -7 -22 -20 l-20 -24 17 28 c9 15 12 27 8 27 -5 0 -15 9 -22 21
-18 28 5 15 31 -18 10 -13 25 -23 33 -23 8 0 31 -11 52 -24 21 -13 52 -27 70
-31 25 -5 32 -12 32 -30 0 -34 10 -55 26 -55 11 0 14 20 14 91 0 77 -2 90 -15
85 -8 -3 -15 -2 -15 3 0 14 -48 19 -61 7 -9 -8 -10 -8 -5 1 5 9 -1 12 -21 9
-15 -2 -20 -1 -10 1 24 6 21 18 -8 37 -28 19 -33 15 -9 -8 8 -9 11 -16 5 -16
-13 0 -24 18 -25 43 -1 11 -7 22 -15 25 -8 3 -11 0 -7 -7 5 -7 1 -9 -9 -5 -14
6 -14 8 2 21 10 8 13 12 7 9 -7 -3 -15 1 -18 10 -3 8 -2 13 3 10 5 -3 2 13 -6
37 -10 29 -13 58 -8 92 4 28 7 61 7 75 0 14 2 19 5 12 4 -10 8 -9 19 5 17 22
18 37 2 27 -7 -4 -8 -3 -4 5 4 6 11 9 15 6 5 -2 19 7 32 21 20 21 21 27 9 35
-12 9 -11 9 5 4 28 -9 25 -9 78 6 l47 13 0 88 c0 82 -1 88 -21 88 -16 0 -20
-6 -19 -27z m-171 -86 c-2 -1 -13 -9 -24 -17 -19 -14 -19 -14 -6 3 7 9 18 17
24 17 6 0 8 -1 6 -3z m4 -100 c4 3 7 1 7 -5 0 -17 -16 -15 -31 6 -12 15 -12
16 2 5 9 -7 19 -10 22 -6z m-56 -229 c-3 -8 -6 -5 -6 6 -1 11 2 17 5 13 3 -3
4 -12 1 -19z m43 -29 c0 -6 -4 -7 -10 -4 -5 3 -10 11 -10 16 0 6 5 7 10 4 6
-3 10 -11 10 -16z m15 -187 c-3 -3 -11 0 -18 7 -9 10 -8 11 6 5 10 -3 15 -9
12 -12z m59 -17 c-4 -10 1 -12 18 -9 21 4 21 4 3 -5 -12 -6 -15 -10 -6 -10 8
-1 11 -4 8 -7 -11 -11 -36 16 -34 36 1 10 5 17 9 14 4 -3 5 -11 2 -19z"/>
<path d="M530 949 c0 -5 5 -7 10 -4 6 3 10 8 10 11 0 2 -4 4 -10 4 -5 0 -10
-5 -10 -11z"/>
<path d="M468 913 c-16 -2 -28 -11 -28 -19 0 -20 24 -17 45 6 10 11 16 19 14
19 -2 -1 -16 -4 -31 -6z"/>
<path d="M586 657 c3 -10 9 -15 12 -12 3 3 0 11 -7 18 -10 9 -11 8 -5 -6z"/>
<path d="M1285 1200 c3 -6 -1 -7 -9 -4 -17 6 -20 -4 -10 -30 8 -20 30 -21 38
-1 7 18 -3 45 -16 45 -5 0 -6 -4 -3 -10z"/>
<path d="M1192 947 c4 -29 42 -31 46 -2 2 16 -3 21 -23 23 -22 2 -26 -2 -23
-21z"/>
<path d="M994 736 c-1 -15 4 -22 17 -23 16 -2 17 2 9 17 -15 28 -25 31 -26 6z"/>
<path d="M1275 752 c2 -2 -2 -11 -10 -18 -18 -18 -10 -40 16 -47 15 -4 23 1
30 20 13 34 8 46 -19 48 -12 1 -20 0 -17 -3z m35 -16 c0 -2 -8 -10 -17 -17
-16 -13 -17 -12 -4 4 13 16 21 21 21 13z"/>
<path d="M1990 1411 c0 -43 10 -51 66 -51 l54 0 0 -174 c0 -96 3 -181 6 -190
4 -11 19 -16 50 -16 l44 0 -2 223 -3 222 -107 3 c-101 3 -108 1 -108 -17z"/>
<path d="M2242 1398 c3 -32 5 -33 52 -36 56 -4 71 6 62 42 -6 24 -11 26 -62
26 l-55 0 3 -32z"/>
<path d="M2482 1208 l3 -223 43 -3 42 -3 0 225 0 226 -45 0 -45 0 2 -222z"/>
<path d="M2610 1390 l0 -41 73 3 72 3 3 38 3 37 -75 0 -76 0 0 -40z"/>
<path d="M2948 1419 c-10 -5 -22 -26 -28 -47 -11 -40 -14 -270 -4 -320 9 -43
39 -72 74 -72 l30 0 0 225 0 225 -27 0 c-16 0 -36 -5 -45 -11z"/>
<path d="M3050 1405 c0 -22 4 -25 34 -25 33 0 35 -2 38 -37 3 -38 3 -38 48
-38 l45 0 3 42 c5 63 -20 83 -103 83 -63 0 -65 -1 -65 -25z"/>
<path d="M3370 1205 l0 -225 45 0 45 0 2 198 3 197 33 3 c26 3 32 7 32 28 0
23 -2 24 -80 24 l-80 0 0 -225z"/>
<path d="M3570 1341 l0 -91 -35 0 c-32 0 -35 -2 -35 -30 0 -28 3 -30 35 -30
l35 0 0 -106 0 -105 43 3 42 3 0 220 0 220 -42 3 -43 3 0 -90z"/>
<path d="M3827 1423 c-9 -8 -9 -406 -1 -427 4 -11 19 -16 50 -16 l44 0 0 225
0 225 -43 0 c-24 0 -47 -3 -50 -7z"/>
<path d="M4260 1222 c0 -250 -3 -242 109 -242 69 0 72 1 69 23 -2 18 -11 23
-43 27 l-40 5 -3 198 -2 197 -45 0 -45 0 0 -208z"/>
<path d="M4462 1220 c3 -240 3 -240 85 -240 39 0 43 2 43 24 0 13 -7 26 -15
30 -12 4 -15 39 -17 198 l-3 193 -48 3 -48 3 3 -211z"/>
<path d="M4751 1405 c-25 -33 -36 -128 -28 -264 8 -140 19 -155 111 -159 64
-3 66 -2 66 22 0 21 -5 25 -32 28 l-33 3 -3 198 -2 197 -29 0 c-20 0 -36 -9
-50 -25z"/>
<path d="M4862 1408 c2 -18 11 -24 38 -28 32 -5 35 -8 38 -42 3 -38 4 -38 48
-38 l44 0 0 49 c0 65 -21 81 -108 81 -60 0 -63 -1 -60 -22z"/>
<path d="M5190 1205 l0 -225 45 0 45 0 2 198 3 197 33 3 c26 3 32 7 32 28 0
23 -2 24 -80 24 l-80 0 0 -225z"/>
<path d="M5390 1340 l0 -90 -35 0 c-32 0 -35 -2 -35 -30 0 -28 3 -30 35 -30
l35 0 0 -106 0 -105 43 3 42 3 3 223 2 222 -45 0 -45 0 0 -90z"/>
<path d="M2610 1215 l0 -36 58 3 c56 3 57 3 60 36 l3 32 -60 0 -61 0 0 -35z"/>
<path d="M4862 1198 c2 -18 11 -24 38 -28 l35 -5 3 -93 3 -93 42 3 42 3 3 104
c2 67 -1 108 -9 117 -8 10 -34 14 -86 14 -71 0 -74 -1 -71 -22z"/>
<path d="M3118 1073 c-3 -35 -6 -38 -35 -41 -27 -3 -33 -7 -33 -28 0 -23 3
-24 65 -24 82 0 105 18 105 85 l0 45 -49 0 -50 0 -3 -37z"/>
<path d="M4030 1070 c0 -39 -1 -40 -35 -40 -31 0 -35 -3 -35 -25 0 -25 1 -25
80 -25 l80 0 0 65 0 65 -45 0 -45 0 0 -40z"/>
<path d="M2610 1020 l0 -41 78 3 77 3 3 38 3 37 -80 0 -81 0 0 -40z"/>
<path d="M2020 701 c-15 -29 -12 -67 6 -85 17 -18 79 -22 89 -6 4 6 -12 10
-39 10 l-46 0 0 44 0 45 43 4 42 4 -42 1 c-33 2 -45 -2 -53 -17z"/>
<path d="M2182 708 c-20 -20 -15 -86 7 -98 30 -15 66 -12 84 8 20 22 22 73 5
90 -16 16 -80 16 -96 0z m93 -43 l0 -40 -45 0 c-42 0 -45 2 -48 28 -6 49 3 58
50 55 43 -3 43 -3 43 -43z"/>
<path d="M2348 669 c-1 -28 0 -53 5 -56 4 -2 7 13 8 34 0 33 2 36 12 19 7 -10
19 -27 28 -39 15 -20 16 -19 40 19 l24 39 6 -40 c6 -37 6 -36 8 18 0 31 -1 57
-3 57 -2 0 -16 -20 -31 -45 -14 -25 -30 -43 -36 -40 -5 4 -18 24 -29 46 -11
21 -22 39 -24 39 -2 0 -6 -23 -8 -51z"/>
<path d="M2547 714 c-4 -4 -6 -30 -5 -58 l1 -51 6 50 c6 50 6 50 45 53 24 2
42 -2 47 -9 12 -20 -8 -47 -38 -52 -22 -4 -21 -5 6 -3 41 1 62 27 45 54 -11
18 -93 30 -107 16z"/>
<path d="M2720 705 c-15 -18 -23 -95 -10 -95 6 0 10 7 10 15 0 23 87 21 93 -2
3 -10 5 8 6 40 l1 57 -44 0 c-26 0 -48 -6 -56 -15z m90 -25 c0 -29 -2 -30 -45
-30 -37 0 -45 3 -45 18 0 27 20 42 57 42 30 0 33 -3 33 -30z"/>
<path d="M2882 663 l2 -58 3 53 4 52 45 0 c41 0 45 -2 42 -22 -2 -17 -11 -24
-32 -26 l-28 -4 23 -24 c24 -25 50 -34 30 -10 -10 12 -8 19 8 35 12 12 17 27
14 40 -5 18 -13 21 -59 21 l-54 0 2 -57z"/>
<path d="M3062 713 c25 -4 27 -9 31 -56 l3 -52 2 52 c2 48 4 52 30 56 15 2 0
4 -33 4 -33 0 -48 -2 -33 -4z"/>
<path d="M3203 665 c0 -33 2 -45 4 -27 2 18 2 45 0 60 -2 15 -4 0 -4 -33z"/>
<path d="M3274 665 l1 -60 48 -3 c28 -2 47 1 47 7 0 6 -20 11 -44 11 l-45 0
-4 53 c-4 50 -4 50 -3 -8z"/>
<path d="M3422 665 c0 -52 1 -56 10 -32 9 25 14 28 51 25 34 -2 42 -7 48 -28
5 -16 7 -5 7 35 0 40 -2 51 -7 35 -6 -21 -14 -26 -48 -28 -37 -3 -42 0 -51 25
-9 24 -10 20 -10 -32z"/>
<path d="M3610 705 c-17 -20 -26 -95 -11 -95 6 0 11 7 11 15 0 23 76 20 89 -2
8 -14 10 -4 11 40 l0 57 -44 0 c-26 0 -48 -6 -56 -15z m90 -25 c0 -29 -2 -30
-45 -30 -37 0 -45 3 -45 18 0 27 20 42 57 42 30 0 33 -3 33 -30z"/>
<path d="M3772 663 c1 -50 2 -52 5 -15 2 23 7 42 11 42 3 0 26 -19 49 -42 36
-35 43 -39 44 -23 0 11 2 27 3 35 2 8 -1 26 -5 40 -6 21 -7 17 -8 -17 -1 -24
-5 -43 -10 -43 -5 0 -25 18 -44 40 -19 22 -37 40 -40 40 -4 0 -6 -26 -5 -57z"/>
<path d="M3940 666 c0 -52 1 -55 29 -61 58 -13 101 14 101 64 0 34 -27 51 -81
51 l-49 0 0 -54z m111 23 c8 -16 8 -28 0 -46 -9 -20 -17 -24 -49 -21 -32 3
-37 7 -40 31 -5 45 4 57 42 57 26 0 38 -6 47 -21z"/>
<path d="M4131 706 c-21 -25 -9 -79 20 -95 22 -12 31 -12 58 -2 27 12 31 18
31 50 0 40 -14 61 -39 60 -10 0 -7 -4 7 -10 19 -7 23 -15 20 -46 -3 -38 -3
-38 -48 -38 -45 0 -45 0 -48 38 -3 31 1 39 20 46 15 7 17 10 7 10 -9 1 -22 -5
-28 -13z"/>
<path d="M4390 711 c21 -6 26 -14 31 -56 l6 -50 1 52 c2 45 5 52 25 56 12 2
-3 4 -33 5 -37 0 -47 -2 -30 -7z"/>
<path d="M4531 693 c1 -23 2 -24 6 -6 3 18 13 23 46 26 l42 4 -47 1 c-46 2
-48 1 -47 -25z"/>
<path d="M4687 713 c-11 -10 -8 -91 3 -98 16 -10 90 -13 90 -4 0 4 -19 9 -42
11 -43 3 -43 3 -43 43 0 40 0 40 45 46 l45 6 -46 1 c-25 1 -49 -1 -52 -5z"/>
<path d="M4843 665 c0 -33 2 -48 4 -32 4 25 8 27 48 27 40 0 44 -2 48 -27 2
-16 4 -1 4 32 0 33 -2 48 -4 33 -4 -26 -8 -28 -48 -28 -40 0 -44 2 -48 28 -2
15 -4 0 -4 -33z"/>
<path d="M4573 663 c9 -2 23 -2 30 0 6 3 -1 5 -18 5 -16 0 -22 -2 -12 -5z"/>
<path d="M4534 635 c1 -14 11 -21 40 -27 25 -5 43 -5 50 2 7 7 -5 10 -36 10
-36 0 -48 4 -51 18 -3 13 -4 13 -3 -3z"/>
</g>
</svg>
